# xmcd CD database file
# Copyright (C) 1997 Ti Kan
# 
# Track frame offsets:
#     150
#     15177
#     31092
#     48615
#     72342
#     86475
#     116627
#     134195
#     151025
#     175060
#     197532
#     223915
#     245092
#     276910
# 
# Disc length: 3838 seconds
# 
# Revision: 1
# Processed by: cddbd v1.4b41PL1 Copyright (c) Steve Scherf et al.
# Submitted via: DiscPlay 4.0.3
# 
DISCID=c50efc0e
DTITLE=Blue Rodeo - Tremolo
DYEAR=1900
DGENRE=
TTITLE0=Moon and Tree
TTITLE1=Shed My Skin
TTITLE2=No Miracle, No Dazzle
TTITLE3=Falling Down Blue
TTITLE4=I Could Never Be A Man
TTITLE5=Beautiful Blue
TTITLE6=Fallen From Grace
TTITLE7=Me and Baz
TTITLE8=Disappear
TTITLE9=It Could Happen To You
TTITLE10=Dragging On
TTITLE11=Brother Andre's heart
TTITLE12=Frogs' Lullaby
TTITLE13=Graveyard
EXTD=
EXTT0=
EXTT1=
EXTT2=
EXTT3=
EXTT4=
EXTT5=
EXTT6=
EXTT7=
EXTT8=
EXTT9=
EXTT10=
EXTT11=
EXTT12=
EXTT13=
PLAYORDER=
